<?xml version="1.0" encoding="UTF-8" standalone="no"?>
<svg
   id="Layer_1"
   data-name="Layer 1"
   viewBox="0 0 43.079998 43.080002"
   version="1.1"
   sodipodi:docname="Hazmapper.svg"
   inkscape:version="1.4.2 (ebf0e940, 2025-05-08)"
   width="43.080002"
   height="43.080002"
   xmlns:inkscape="http://www.inkscape.org/namespaces/inkscape"
   xmlns:sodipodi="http://sodipodi.sourceforge.net/DTD/sodipodi-0.dtd"
   xmlns="http://www.w3.org/2000/svg"
   xmlns:svg="http://www.w3.org/2000/svg">
  <sodipodi:namedview
     id="namedview21"
     pagecolor="#ffffff"
     bordercolor="#000000"
     borderopacity="0.25"
     inkscape:showpageshadow="2"
     inkscape:pageopacity="0.0"
     inkscape:pagecheckerboard="0"
     inkscape:deskcolor="#d1d1d1"
     inkscape:zoom="18.430826"
     inkscape:cx="21.567128"
     inkscape:cy="17.30796"
     inkscape:window-width="1648"
     inkscape:window-height="971"
     inkscape:window-x="0"
     inkscape:window-y="25"
     inkscape:window-maximized="0"
     inkscape:current-layer="Layer_1" />
  <defs
     id="defs1">
    <style
       id="style1">.cls-1{fill:#137889;}.cls-2{fill:#4bbcd6;}.cls-3{fill:#fff;}.cls-4{fill:#127c8d;}.cls-5{fill:#ffd15d;}.cls-6{fill:#ff9e46;}.cls-7{fill:#ff7226;}.cls-8{fill:#be0d38;}.cls-9{font-size:13.92px;font-family:Futura-Bold, Futura;font-weight:700;}</style>
  </defs>
  <path
     class="cls-1"
     d="m 21.54,0 a 21.54,21.54 0 1 1 0,43.08 z"
     id="path1" />
  <path
     class="cls-2"
     d="m 21.54,0 a 21.54,21.54 0 0 0 0,43.08 v 0 z"
     id="path2" />
  <path
     class="cls-3"
     d="m 21.13,5.8 h -2.07 c -0.83,0 -2.07,-1.24 -2.49,-2.49 0,0 -1.34,-0.88 -1.24,-2.07 l 5.8,-0.83 z"
     id="path3" />
  <path
     class="cls-4"
     d="m 15.33,40.18 a 1.81,1.81 0 0 1 0.77,-2.44 l 0.09,-0.05 c 2.49,0 2.49,-7.46 -4.14,-6.63 0,-7.46 -8.28,-5.8 -8.28,-2.49 a 7.34,7.34 0 0 0 -0.83,3.31 c 0.14,1.46 5.38,6.62 5.38,6.62 l 5.8,2.91 c 0.8,0.01 1.21,-1.23 1.21,-1.23 z"
     id="path4" />
  <path
     class="cls-4"
     d="m 12.85,5.38 c 4.14,0 3.31,5 0.83,5 v 9.95 h -5.8 v 2.49 c 0,2.49 -4.14,2.49 -4.14,0 V 9.42 l 6,-5.9 z"
     id="path5" />
  <path
     d="M 21.54,0.83 A 20.71,20.71 0 1 1 0.83,21.54 20.71,20.71 0 0 1 21.54,0.83 m 0,-0.83 a 21.54,21.54 0 1 0 21.54,21.54 v 0 A 21.54,21.54 0 0 0 21.54,0 Z"
     id="path6" />
  <rect
     x="20.720001"
     y="0.82999992"
     width="0.82999998"
     height="41.84"
     id="rect6" />
  <path
     d="M 5.8,25.06 A 2.7,2.7 0 0 1 4.12,24.5 2.16,2.16 0 0 1 3.32,22.78 v -6.63 a 0.41,0.41 0 0 1 0.42,-0.41 0.41,0.41 0 0 1 0.41,0.41 v 6.63 a 1.49,1.49 0 0 0 1.52,1.46 h 0.14 a 1.49,1.49 0 0 0 1.65,-1.31 0.66,0.66 0 0 0 0,-0.14 v -2.46 a 0.41,0.41 0 0 1 0.41,-0.41 h 5.39 v -9.59 a 0.41,0.41 0 0 1 0.41,-0.41 1.45,1.45 0 0 0 1.17,-0.59 2.38,2.38 0 0 0 0.48,-1.45 c 0,-0.49 -0.18,-2.07 -2.49,-2.07 a 0.42,0.42 0 0 1 0,-0.83 c 2.45,0 3.31,1.56 3.31,2.9 a 2.83,2.83 0 0 1 -2.06,2.85 v 10.39 a 0.41,0.41 0 0 1 -0.41,0.42 0.42,0.42 0 0 1 -0.42,-0.42 v -0.41 h -5 v 2.07 A 2.31,2.31 0 0 1 5.9,25.06 Z"
     id="path7" />
  <path
     d="m 15.33,40.59 a 0.42,0.42 0 0 1 -0.37,-0.23 2.2,2.2 0 0 1 0.92,-3 h 0.08 0.19 a 1,1 0 0 0 0.83,-0.61 3.73,3.73 0 0 0 -0.41,-3.61 c -0.63,-0.9 -1.91,-1.91 -4.51,-1.59 a 0.41,0.41 0 0 1 -0.46,-0.35 0.13,0.13 0 0 1 0,-0.06 5.2,5.2 0 0 0 -1.27,-3.81 3.77,3.77 0 0 0 -2.7,-1.07 C 5.79,26.19 4.2,27.33 4.2,28.58 A 0.41,0.41 0 0 1 3.79,29 0.42,0.42 0 0 1 3.37,28.58 c 0,-1.92 2.23,-3.22 4.31,-3.22 a 4.57,4.57 0 0 1 3.29,1.31 5.71,5.71 0 0 1 1.5,3.93 5,5 0 0 1 4.83,2 4.56,4.56 0 0 1 0.46,4.47 1.75,1.75 0 0 1 -1.45,1 1.26,1.26 0 0 0 -0.73,1.14 1.94,1.94 0 0 0 0.16,0.75 0.4,0.4 0 0 1 -0.17,0.55 0.35,0.35 0 0 1 -0.2,0.05 z"
     id="path8" />
  <path
     d="M 5.41,26.72 A 0.41,0.41 0 0 1 5,26.31 v -1.69 a 0.41,0.41 0 0 1 0.42,-0.41 0.41,0.41 0 0 1 0.41,0.41 v 1.71 a 0.4,0.4 0 0 1 -0.42,0.39 z"
     id="path9" />
  <circle
     cx="10.77"
     cy="23.200001"
     r="0.82999998"
     id="circle9" />
  <path
     d="m 19.06,6.21 c -1.1,0 -2.45,-1.49 -2.88,-2.77 a 0.41,0.41 0 0 1 0.23,-0.52 0.4,0.4 0 0 1 0.52,0.26 c 0.38,1.13 1.5,2.2 2.09,2.2 a 0.42,0.42 0 1 1 0,0.83 z"
     id="path10" />
  <path
     class="cls-5"
     d="m 21.54,1.66 a 19.89,19.89 0 1 1 0,39.77 z"
     id="path11" />
  <path
     d="M 21.54,41.84 H 21.13 V 1.24 h 0.41 a 20.3,20.3 0 0 1 0,40.59 z M 21.95,2.08 V 41 a 19.47,19.47 0 0 0 0,-38.93 z"
     id="path12" />
  <path
     class="cls-6"
     d="m 21.54,6.63 a 14.91,14.91 0 0 1 0,29.82 v 0 z"
     id="path13" />
  <path
     d="M 21.54,36.87 H 21.13 V 6.21 h 0.41 a 15.33,15.33 0 0 1 0,30.65 z M 21.95,7.05 v 29 a 14.5,14.5 0 1 0 0,-29 z"
     id="path14" />
  <path
     class="cls-7"
     d="m 21.54,12.43 a 9.12,9.12 0 1 1 0,18.23 z"
     id="path15" />
  <path
     d="M 21.54,31.07 H 21.13 V 12 h 0.41 a 9.53,9.53 0 0 1 0,19.05 z m 0.41,-18.22 v 17.38 a 8.7,8.7 0 0 0 0,-17.38 z"
     id="path16" />
  <path
     class="cls-8"
     d="m 21.54,16.57 a 5.00034,5.00034 0 1 1 1.1,9.94 5.06,5.06 0 0 1 -1.1,0 z"
     id="path17" />
  <path
     d="M 21.54,26.92 H 21.13 V 16.15 h 0.41 a 5.3901252,5.3901252 0 1 1 0.47,10.77 z M 21.95,17 v 9.08 a 4.56,4.56 0 0 0 0,-9.08 z"
     id="path18" />
</svg>
